<?xml version="1.0" standalone="no"?>
<!DOCTYPE svg PUBLIC "-//W3C//DTD SVG 20010904//EN"
 "http://www.w3.org/TR/2001/REC-SVG-20010904/DTD/svg10.dtd">
<svg version="1.0" xmlns="http://www.w3.org/2000/svg"
 width="107.000000pt" height="107.000000pt" viewBox="0 0 107.000000 107.000000"
 preserveAspectRatio="xMidYMid meet">
<metadata>
Created by potrace 1.11, written by Peter Selinger 2001-2013
</metadata>
<g transform="translate(0.000000,107.000000) scale(0.100000,-0.100000)"
fill="#000000" stroke="none">
<path d="M115 1048 c3 -13 12 -39 19 -58 26 -69 44 -140 35 -140 -5 0 -9 -13
-9 -28 0 -16 -7 -52 -16 -81 -8 -29 -13 -59 -10 -67 3 -7 1 -16 -4 -19 -4 -3
-11 1 -13 7 -3 8 -6 6 -6 -5 -1 -12 -5 -16 -13 -11 -7 4 -4 -3 7 -15 l20 -23
-37 -33 c-39 -33 -49 -51 -23 -42 31 12 23 -12 -10 -32 -33 -19 -46 -41 -25
-41 6 0 10 5 10 10 0 6 9 10 20 10 10 0 24 9 30 21 7 11 14 18 17 15 3 -3 -6
-21 -21 -41 -15 -19 -24 -35 -19 -34 21 4 33 -2 33 -17 0 -8 -4 -13 -8 -10 -5
3 -5 -18 -1 -47 10 -70 11 -197 1 -197 -4 0 -24 11 -44 25 -20 14 -39 25 -42
25 -4 0 -6 -49 -6 -110 l0 -110 149 0 c138 0 149 1 154 19 3 15 -5 23 -37 37
-42 19 -54 27 -87 56 -10 10 -23 18 -27 18 -16 0 -41 35 -34 47 4 6 16 13 27
16 18 4 18 5 -2 6 -19 1 -23 7 -23 35 0 18 3 48 6 65 6 27 11 31 38 32 26 0
28 2 11 9 l-20 9 20 1 c19 1 18 2 -2 10 -13 5 -24 15 -24 22 -2 17 2 52 6 56
8 9 45 -40 45 -59 0 -16 4 -19 20 -14 12 4 31 0 45 -9 13 -9 35 -16 48 -16 22
0 24 -3 21 -47 -2 -27 -4 -48 -4 -48 -1 0 -4 -14 -6 -31 -3 -22 1 -35 16 -49
12 -11 20 -31 20 -50 0 -19 12 -47 31 -73 l31 -42 153 0 153 0 26 31 c30 35
32 57 11 85 -16 21 -20 114 -5 114 20 0 10 38 -12 44 -18 4 -20 8 -10 15 8 4
14 12 15 17 1 5 14 20 30 33 22 18 25 26 15 32 -10 7 -9 9 4 9 31 0 39 33 28
112 -19 137 -33 193 -56 227 -16 23 -21 43 -17 59 4 18 1 24 -16 29 -11 3 -21
8 -21 12 0 4 -16 13 -35 20 -19 7 -35 17 -35 22 0 5 -7 9 -15 9 -8 0 -24 9
-35 20 -12 12 -24 18 -29 16 -5 -3 -17 4 -27 15 -35 39 -57 40 -143 9 -44 -15
-92 -38 -107 -49 -35 -28 -78 -29 -71 -1 3 10 0 21 -7 23 -7 2 -11 33 -11 85
l1 82 -49 0 c-45 0 -48 -1 -42 -22z m345 -331 c34 -17 47 -30 54 -56 8 -27 6
-35 -6 -42 -9 -5 -19 -20 -22 -34 -5 -21 -12 -25 -44 -25 -21 0 -43 5 -50 12
-22 22 -142 -27 -142 -58 0 -11 7 -13 28 -8 26 6 25 5 -13 -29 -51 -44 -58
-34 -54 72 3 66 8 83 32 114 29 38 73 63 122 70 17 2 35 5 40 5 6 1 30 -8 55
-21z"/>
<path d="M1062 881 c-1 -16 -7 -21 -17 -17 -18 6 -18 6 -35 -84 -6 -36 -17
-68 -23 -73 -9 -5 -7 -11 6 -21 17 -13 17 -20 7 -73 -6 -32 -10 -95 -8 -141 3
-76 -2 -96 -17 -72 -4 6 -11 8 -16 4 -6 -3 -9 0 -8 7 2 8 -1 30 -6 49 -7 31
-9 33 -17 15 -7 -17 -8 -15 -5 8 3 15 1 27 -3 27 -11 0 -19 -50 -9 -56 17 -10
10 -72 -8 -83 -16 -9 -15 -11 7 -11 14 -1 19 -4 12 -7 -6 -2 -9 -9 -6 -15 4
-7 14 -1 26 13 10 13 16 17 12 8 -3 -10 -1 -20 5 -24 8 -4 8 -12 0 -27 -9 -16
-8 -19 2 -16 8 3 16 15 19 29 6 25 26 32 48 15 10 -7 12 -23 8 -55 -8 -54 8
-36 18 22 6 30 4 37 -9 37 -8 0 -15 5 -15 10 0 6 4 10 10 10 22 0 30 87 27
312 -1 128 -3 222 -5 209z"/>
</g>
</svg>
